<?xml version="1.0" standalone="no"?>
<!DOCTYPE svg PUBLIC "-//W3C//DTD SVG 20010904//EN"
 "http://www.w3.org/TR/2001/REC-SVG-20010904/DTD/svg10.dtd">
<svg version="1.0" xmlns="http://www.w3.org/2000/svg"
 width="361.000000pt" height="139.000000pt" viewBox="0 0 361.000000 139.000000"
 preserveAspectRatio="xMidYMid meet">
<metadata>
Created by potrace 1.16, written by Peter Selinger 2001-2019
</metadata>
<g transform="translate(0.000000,139.000000) scale(0.100000,-0.100000)"
fill="#000000" stroke="none">
<path d="M0 695 l0 -695 27 0 c25 0 25 1 9 19 -14 15 -16 28 -11 53 9 38 25
70 42 81 7 4 13 17 13 28 0 13 4 18 12 13 7 -4 8 -3 4 5 -4 6 1 23 11 39 10
15 25 40 33 55 8 15 28 45 45 65 64 75 255 331 255 341 0 19 -21 12 -112 -40
-94 -54 -133 -65 -147 -42 -4 8 -11 14 -14 14 -21 -3 -27 1 -27 17 0 9 -9 23
-20 30 -11 7 -20 17 -20 23 0 5 5 7 11 3 8 -5 8 -1 0 13 -7 14 -7 23 1 31 18
18 21 52 4 46 -8 -3 -19 3 -25 15 -14 26 -14 34 1 25 8 -5 9 -2 5 9 -8 22 92
140 308 364 154 160 180 173 239 118 37 -34 36 -80 -3 -99 -32 -17 -114 -121
-208 -266 -59 -89 -70 -110 -58 -110 2 0 27 9 56 20 93 37 303 51 284 19 -5
-8 7 -11 32 -8 25 2 14 -97 -16 -151 -21 -38 -113 -155 -121 -155 -7 0 -101
-95 -146 -148 -14 -16 -29 -25 -35 -21 -8 5 -9 3 -4 -5 4 -8 -4 -23 -24 -41
-17 -16 -33 -24 -36 -19 -11 17 -43 -14 -40 -38 2 -16 -2 -23 -10 -19 -13 5
-30 -20 -26 -37 1 -5 -3 -6 -9 -2 -8 5 -7 12 1 23 7 10 0 4 -16 -11 -15 -16
-30 -25 -34 -20 -3 4 -14 9 -24 11 -18 3 -42 -42 -31 -59 3 -6 -5 -8 -19 -5
-20 3 -24 1 -21 -19 1 -17 -2 -22 -12 -18 -8 3 -14 -1 -14 -11 0 -9 -4 -16 -9
-16 -17 0 -23 -54 -7 -65 16 -13 10 -26 -19 -43 -15 -9 427 -11 1758 -12
l1777 0 0 695 0 695 -1805 0 -1805 0 0 -695z m1418 665 c35 -29 52 -81 46
-140 -6 -53 -29 -130 -42 -140 -4 -3 -28 -48 -55 -101 -49 -100 -119 -184
-179 -215 -24 -13 -35 -13 -58 -4 l-29 12 65 93 c89 128 133 225 141 308 7 75
1 81 -48 46 -33 -23 -71 -83 -94 -149 -36 -99 -66 -229 -71 -300 -3 -41 -8
-82 -11 -90 -3 -8 -9 -96 -13 -195 -9 -194 -28 -286 -72 -332 -31 -33 -89 -31
-127 5 l-29 27 17 85 c10 47 21 116 25 154 22 228 111 567 191 726 51 102 108
165 182 204 59 31 128 34 161 6z m1280 -109 c9 -5 35 -14 57 -21 22 -7 48 -20
58 -28 25 -22 66 -108 68 -140 2 -30 -8 -133 -16 -172 -3 -14 -7 -41 -9 -60
-3 -19 -9 -48 -15 -63 -6 -16 -11 -38 -11 -50 0 -12 -12 -49 -26 -82 -14 -33
-26 -69 -25 -80 0 -27 -79 -165 -96 -165 -7 0 -13 -5 -13 -10 0 -6 -8 -14 -17
-17 -10 -4 -34 -19 -53 -34 -51 -40 -123 -61 -212 -61 -121 0 -173 34 -208
135 -41 115 -18 279 60 444 76 160 204 308 300 347 25 9 65 28 90 42 53 28 46
26 68 15z m-611 -90 c71 -52 57 -180 -43 -381 -96 -195 -221 -355 -326 -418
-16 -9 -28 -22 -28 -30 0 -7 -4 -11 -9 -8 -5 3 -14 -1 -20 -8 -11 -13 -52 -13
-73 0 -5 3 -22 34 -38 68 -67 142 -26 343 111 542 58 83 101 124 130 124 10 0
19 3 19 8 0 11 104 118 120 125 26 10 134 -5 157 -22z m1488 -71 c4 -12 -12
-85 -39 -178 -25 -86 -52 -195 -60 -242 -8 -47 -20 -98 -25 -113 -11 -29 -103
-132 -132 -148 -25 -13 -66 24 -79 71 -9 32 -40 245 -40 272 0 4 -4 8 -9 8 -5
0 -14 -24 -21 -52 -27 -115 -100 -362 -115 -384 -18 -28 -45 -31 -75 -6 l-21
17 35 146 c36 147 135 434 179 518 30 57 71 90 94 75 29 -18 43 -93 44 -239 1
-150 11 -260 22 -235 3 8 26 76 51 150 41 126 123 317 147 347 17 19 37 16 44
-7z"/>
<path d="M2606 950 c-32 -33 -61 -60 -65 -60 -20 0 -64 -89 -106 -210 -58
-170 -68 -271 -26 -270 32 1 89 67 134 157 42 82 139 424 125 439 -3 2 -31
-23 -62 -56z"/>
<path d="M1933 968 c-34 -49 -74 -125 -99 -183 -24 -60 -74 -218 -70 -223 8
-8 109 145 143 218 31 66 70 216 59 227 -2 3 -17 -15 -33 -39z"/>
</g>
</svg>
